PathFileType	4	(X/Y/Z)	pose_F01_0-73.trc
DataRate	CameraRate	NumFrames	NumMarkers	Units	OrigDataRate	OrigDataStartFrame	OrigNumFrames
30	30	7	21	m	30	0	73
Frame#	Time	CHip			RHip			RKnee			RAnkle			RBigToe			RSmallToe			RHeel			LHip			LKnee			LAnkle			LBigToe			LSmallToe			LHeel			Neck			Nose			RShoulder			RElbow			RWrist			LShoulder			LElbow			LWrist			
		X1	Y1	Z1	X2	Y2	Z2	X3	Y3	Z3	X4	Y4	Z4	X5	Y5	Z5	X6	Y6	Z6	X7	Y7	Z7	X8	Y8	Z8	X9	Y9	Z9	X10	Y10	Z10	X11	Y11	Z11	X12	Y12	Z12	X13	Y13	Z13	X14	Y14	Z14	X15	Y15	Z15	X16	Y16	Z16	X17	Y17	Z17	X18	Y18	Z18	X19	Y19	Z19	X20	Y20	Z20	X21	Y21	Z21	
0	0.0	-0.2437216943660532	1.8905430479712555	-0.5089258086942744	-0.25484063759561615	1.8886642114451473	-0.44828590322562106	-0.26796155577123176	1.7384681490275051	-0.4039871304570762													-0.2248323345389138	1.8914513513629974	-0.5642497863491724	-0.2200981687202522	1.750624202397123	-0.5454333519917388	-0.21525677328243234	1.6069269964325004	-0.5269181335740645	-0.21687740127791097	1.5669604262365433	-0.5915707825934272	-0.21116348540831542	1.5828029499025982	-0.6069526255371286	-0.21399189234647722	1.5896228141446271	-0.5039855130062186	-0.23403185237738366	2.0569001439866663	-0.5086200404678296	-0.24765186873494155	2.131020952910666	-0.5525563935243377	-0.2564220923718169	2.0548717893852606	-0.42907575453016256	-0.3037012518825772	2.0426308678122496	-0.36442092782967256	-0.30523392823258777	2.1048465421589286	-0.4298493771985584	-0.214381348893698	2.0594112465012895	-0.595648323458733	-0.18189379743740874	2.0719461574919222	-0.7579923331910247	-0.19867885255766987	2.127254849933722	-0.752661169239946
1	0.03333333333333333	-0.24399086604193854	1.8872353012751282	-0.49968074899508685	-0.25581275675003906	1.8840989012670082	-0.4335861961960469	-0.2678603404119931	1.738392302704554	-0.4018005575490024													-0.22607917496826085	1.888759517809649	-0.55841082739524	-0.22082410854872514	1.7429707676013892	-0.5481168769261303	-0.2134175423458527	1.5995352594834733	-0.5324293060630791	-0.21713311409686986	1.56366962023087	-0.5951025639425076	-0.21000351552941895	1.5766579084409418	-0.6079342834945421	-0.21348255151002898	1.5867449735168944	-0.5043455928495043	-0.23824986946968396	2.0530414325665522	-0.5036322656406377	-0.2500960646288384	2.1244276252374226	-0.5423243543241306	-0.2604053868532605	2.049859617710668	-0.4238127539495447	-0.30671322658682665	2.0411436448996536	-0.35826416617960277	-0.29764454448347827	2.10004732234416	-0.42197680759424433	-0.21789987842988953	2.0568444613413757	-0.5881203859457624	-0.19020011020022687	2.068540548127765	-0.7464423185418141	-0.2121620701390335	2.135338301603322	-0.7247725941060751
2	0.06666666666666667	-0.24426003771782387	1.8839275545790009	-0.4904356892958993	-0.256784875904462	1.879533591088869	-0.4188864891664727	-0.2678603404119931	1.738392302704554	-0.4018005575490024													-0.2273260153976079	1.8860676842563007	-0.5525718684413075	-0.22155004837719808	1.7353173328056555	-0.5508004018605218	-0.21157831140927305	1.5921435225344462	-0.5379404785520938	-0.21738882691582875	1.5603788142251966	-0.598634345291588	-0.2088435456505225	1.5705128669792854	-0.6089159414519557	-0.21297321067358074	1.5838671328891616	-0.50470567269279	-0.24246788656198426	2.049182721146438	-0.49864449081344575	-0.2525402605227352	2.1178342975641793	-0.5320923151239235	-0.26438868133470406	2.0448474460360755	-0.41854975336892686	-0.3097252012910761	2.0396564219870577	-0.352107404529533	-0.29005516073436877	2.095248102529391	-0.41410423798993024	-0.22141840796608106	2.054277676181462	-0.5805924484327919	-0.198506422963045	2.0651349387636078	-0.7348923038926035	-0.2256452877203971	2.143421753272922	-0.6968840189722042
3	0.1	-0.24523183311104488	1.8726094788661443	-0.46611912801800426	-0.2613483052041829	1.8695105239567285	-0.4071431768121368	-0.2678603404119931	1.738392302704554	-0.4018005575490024													-0.23168631314996904	1.8768465577506368	-0.5291941956150759	-0.22466371115369702	1.7392140315556481	-0.5609612171150804	-0.21255439150408537	1.5919349665968223	-0.5372045545106319	-0.2195655013639167	1.5601701455773027	-0.596532266322068	-0.20883951821331437	1.5700888588166606	-0.6089493097418427	-0.21242840922331924	1.583717815685881	-0.5053067013646761	-0.24838919299926468	2.041044818056303	-0.4816819353418704	-0.2565840771546674	2.112359990824279	-0.5177530559230893	-0.26589870681082345	2.0364657961443657	-0.3970729565102482	-0.31414571923864576	2.0358143084704947	-0.3486526976288768	-0.2900984319429035	2.0957699706421034	-0.40549224225719577	-0.22862529711861404	2.048179371733985	-0.567279699949008	-0.20688948114128192	2.0600737308681065	-0.7229166689011989	-0.23236901835155974	2.1319476485144593	-0.6708102515337929
4	0.13333333333333333	-0.2497992256246522	1.8737035224172143	-0.4560228168772698	-0.2628073080223573	1.8701550209830584	-0.3959680527079673	-0.2678603404119931	1.738392302704554	-0.4018005575490024													-0.23265776173914268	1.875785756184285	-0.5148400835857524	-0.2323473462519485	1.737784003932774	-0.5612676886563926	-0.21293308159442922	1.5913619756182409	-0.5366345554705034	-0.2181041951470937	1.5617961220892738	-0.6025041637341761	-0.20862161791455383	1.5717817591937244	-0.6096254902347567	-0.21272841320297822	1.582964449391813	-0.5047174335313702	-0.24816063881112918	2.0366762322144796	-0.46311393100456594	-0.2595997620112843	2.1095564193767564	-0.5099817569979945	-0.2684395834226133	2.0322918699778243	-0.3878894861221531	-0.30760170998907643	2.0323969637950423	-0.3223458390031903	-0.29014170315143833	2.0962918387548153	-0.39688024652446136	-0.2269006487190999	2.043629794646637	-0.5419525981785264	-0.20800742952550233	2.0583935040656924	-0.6967153896563364	-0.23258622707547524	2.1246766291242345	-0.6427673825676424
5	0.16666666666666666	-0.2505080190053179	1.8756360366481366	-0.44189678693112744	-0.2629936728697652	1.86952417320873	-0.3731167024506574	-0.2678603404119931	1.738392302704554	-0.4018005575490024													-0.23538131757570904	1.8775315088188804	-0.5073576380502192	-0.2320707064956589	1.7424268839749688	-0.548943856531533	-0.21276457292537537	1.5918056080297616	-0.5368760839575536	-0.2174288615327126	1.5602885121397096	-0.5987809137378577	-0.20909988547295488	1.5717325109328617	-0.6087136516684024	-0.21242716719660326	1.582664457449431	-0.5050015153883818	-0.24884205233340684	2.0395319327865997	-0.4496093893077104	-0.2585410992206825	2.1077798746448297	-0.4970135863843496	-0.26661948742058117	2.035390310912067	-0.3680979075693912	-0.31789504130354956	2.0415543333121904	-0.3387881525883	-0.2901849743599731	2.0968137068675277	-0.3882682507917269	-0.23175484423056972	2.0445129850668677	-0.5320205741081294	-0.21271884517464765	2.0597198701162296	-0.683552163305269	-0.23490824276367048	2.123707214902131	-0.6308740700074947
6	0.2	-0.24944797344737538	1.8763515703439015	-0.4300620474159438	-0.26382668627974964	1.8716251510578517	-0.36786053638478866	-0.2678603404119931	1.738392302704554	-0.4018005575490024													-0.23669704848298267	1.8803451849043782	-0.5022209325397834	-0.23100872097526826	1.7378523844803866	-0.5363381091118473	-0.2125960642563215	1.5922492404412825	-0.5371176124446038	-0.21939076120648945	1.5595431509054145	-0.5965349054389585	-0.2088223824780424	1.5698857747442394	-0.6089379063467435	-0.2121259211902283	1.5823644655070495	-0.5052855972453932	-0.2518270075856921	2.0420074834639625	-0.4430083372242851	-0.26126712764918025	2.1109738166627454	-0.4825091669618487	-0.26836918907259694	2.0385556419242046	-0.35917451915336923	-0.3120630962791044	2.0386422895414067	-0.3078081102285705	-0.2902282455685079	2.0973355749802396	-0.3796562550589925	-0.23194504289758094	2.049038807609403	-0.5248456612001915	-0.21679932618770806	2.064902671006446	-0.6794702632436266	-0.23466634294782443	2.125002580205952	-0.612425791763275
